# xmcd
#
# Track frame offsets:
#	183
#	11880
#	24678
#	35135
#	44490
#	54188
#	65600
#	77330
#	86230
#	100970
#	113100
#	125465
#
# Disc length: 1808 seconds
#
# Revision: 0
# Processed by: cddbd v1.4PL0 Copyright (c) Steve Scherf et al.
# Submitted via: dBpowerAMP V4.0
#
DISCID=9f070e0c
DTITLE=Sammy Davis Jr. - Greatest Hits
DYEAR=1990
DGENRE=
TTITLE0=Hey There
TTITLE1=September Song
TTITLE2=Too Close for Comfort
TTITLE3=Something's Gotta Give
TTITLE4=Lonesome Road
TTITLE5=Pendo (Lost)
TTITLE6=That Old Black Magic
TTITLE7=This Little Girl Of Mine
TTITLE8=Begin The Beguine
TTITLE9=All Of You
TTITLE10=I Concentrate On You
TTITLE11=You Do Something To Me
EXTD=
EXTT0=
EXTT1=
EXTT2=
EXTT3=
EXTT4=
EXTT5=
EXTT6=
EXTT7=
EXTT8=
EXTT9=
EXTT10=
EXTT11=
PLAYORDER=
